<svg width="256" height="256" viewBox="0 0 256 256" fill="none" xmlns="http://www.w3.org/2000/svg">
<g clip-path="url(#clip0_105_126)">
<g clip-path="url(#clip1_105_126)">
<rect width="256" height="256" rx="128" fill="url(#paint0_linear_105_126)"/>
<mask id="mask0_105_126" style="mask-type:alpha" maskUnits="userSpaceOnUse" x="-7" y="-6" width="269" height="269">
<path fill-rule="evenodd" clip-rule="evenodd" d="M127.517 -5.99961C169.331 -5.99961 208.769 13.4623 234.215 46.6301C259.662 79.8102 268.24 122.937 257.412 163.322C246.584 203.706 217.586 236.773 178.959 252.763C140.32 268.765 96.4497 265.886 60.2346 244.974C24.0282 224.061 -0.400735 187.502 -5.85084 146.042C-11.3009 104.581 2.82956 62.9509 32.3993 33.3818C57.6063 8.12914 91.837 -6.04346 127.517 -5.99961ZM156.756 31.3383C153.432 31.1898 150.463 29.191 149.069 26.1645C148.213 23.2749 148.841 20.1454 150.737 17.8039C153.341 13.0298 154.529 7.616 154.152 2.19104C138.893 -0.983993 123.188 -1.41819 107.782 0.934682C107.245 4.24685 108.833 7.54761 111.757 9.20369C114.955 10.7113 117.913 12.6758 120.528 15.0514C121.499 16.0108 122.15 17.2443 122.402 18.592C122.55 19.974 122.196 21.3674 121.408 22.5094C119.249 25.9929 120.323 31.8634 119.249 36.2264C118.998 37.38 118.473 38.465 117.719 39.3787C116.714 40.5322 115.32 41.286 113.801 41.5145C111.917 41.8228 110.055 42.2911 108.251 42.9193C106.754 43.3419 105.532 44.4155 104.916 45.8432C104.447 47.3622 104.447 48.9954 104.916 50.5146C106.321 56.5679 109.621 61.6505 112.02 67.2357V67.2471C113.014 69.2687 113.527 71.4844 113.516 73.7346C113.379 75.8019 112.751 77.8005 111.7 79.5823C107.052 88.354 107.052 88.708 108.308 93.4137C109.187 96.5659 111.232 99.5585 111.003 102.768C110.763 104.915 109.713 106.891 108.079 108.296C102.232 113.824 98.4054 117.947 99.3077 128.329C99.8902 132.041 99.6732 135.844 98.6567 139.465C97.4346 142.571 95.5387 145.369 93.106 147.654C91.21 149.481 91.1073 152.485 92.8661 154.438C96.2926 159.349 103.305 162.593 108.536 165.368H108.548C110.489 166.237 112.111 167.687 113.196 169.526C114.864 172.975 112.876 180.548 111.734 183.94C110.444 188.531 107.942 192.7 104.504 196.012C98.2797 201.22 94.8304 198.091 87.9204 206.748H87.9319C86.7669 207.925 86.0473 209.478 85.8874 211.134C86.0702 212.459 86.6983 213.704 87.6692 214.64C88.2174 215.291 88.5372 216.102 88.6057 216.948C88.5715 217.827 88.2973 218.672 87.8176 219.403C86.5042 221.596 84.7566 223.492 82.7009 224.988C81.6273 225.822 80.3595 226.347 79.0118 226.507C77.6983 226.576 76.4192 226.005 75.5853 224.988C74.0548 222.944 72.9698 220.603 72.3758 218.113C72.1816 217.393 71.9532 216.673 71.6677 215.988C71.2907 215.326 70.7882 214.743 70.1829 214.286C69.0293 213.498 68.1385 212.39 67.6131 211.1C67.259 209.432 67.6016 207.696 68.5724 206.303C72.0217 200.078 71.325 193.523 67.2019 185.573C65.0775 182.421 64.2666 178.561 64.9519 174.814C65.58 172.37 66.4024 169.972 67.4074 167.653C68.4011 165.141 69.429 162.742 70.5027 160.252C71.1194 159.133 71.2565 157.797 70.8796 156.575C70.6169 155.147 70.0344 152.863 69.2692 148.625V148.614C68.4811 145.142 68.9608 141.51 70.6169 138.357C71.8961 136.553 72.9354 134.588 73.6893 132.51C73.8606 131.219 73.3124 129.906 71.3251 128.215V128.204C69.018 126.228 65.8542 125.577 62.9646 126.479C58.0191 127.793 53.3476 132.03 50.6866 133.583C42.8743 138.083 37.9976 138.609 34.7196 137.444C29.8084 135.685 28.2552 129.837 24.863 125.748C21.4707 121.659 15.7715 123.178 13.6359 120.483C12.5508 119.112 12.2881 116.531 13.6359 111.277C14.5838 106.937 14.2069 102.414 12.5508 98.3026C10.9062 94.0995 8.51911 90.2277 5.50372 86.8697C-6.6944 122.836 -2.43402 162.352 17.165 194.892C36.764 227.432 69.7041 249.68 107.212 255.712C144.719 261.742 182.969 250.938 211.787 226.186C210.188 226.255 208.6 226.461 207.047 226.826C204.477 227.477 201.77 227.271 199.326 226.244C197.933 225.467 196.368 225.033 194.769 224.987C193.833 224.987 193.159 225.752 191.845 226.244C184.341 229.019 176.015 228.573 168.865 224.987C165.348 223.925 163.155 220.43 163.714 216.798C164.731 213.212 167.7 210.516 171.378 209.865C173.457 209.397 174.965 207.592 175.067 205.457C175.341 201.733 176.563 198.135 178.631 195.017C180.995 192.094 184.01 191.865 186.877 189.844C190.954 186.988 193.102 182.089 192.428 177.155C192.199 173.591 194.917 170.279 197.133 167.241C198.367 165.71 199.132 163.872 199.361 161.919C199.406 159.749 198.047 157.807 196.003 157.099C194.347 156.117 192.451 155.614 190.532 155.637C188.133 155.808 186.991 157.396 184.684 157.773C181.418 157.807 178.243 156.779 175.615 154.849C172.794 153.65 170.796 151.068 170.35 148.03C170.35 145.598 170.876 143.188 171.903 140.983C172.36 139.636 172.28 138.151 171.675 136.86C171.001 135.604 169.699 134.816 168.283 134.781C165.713 134.838 163.212 134.028 161.179 132.474C160.162 131.378 159.557 129.984 159.454 128.5C159.374 125.678 158.792 122.903 157.752 120.288C156.553 117.272 156.644 113.903 157.992 110.956C158.552 109.586 158.826 108.112 158.803 106.627C158.46 104.8 157.181 103.281 155.445 102.619C147.37 98.324 149.335 96.3597 143.978 88.6389V88.6504C141.237 85.0069 141.237 79.9817 143.978 76.3382C147.462 71.3928 154.006 69.7025 159.762 69.9308H159.774C165.393 70.3078 170.681 72.7748 174.599 76.8294C176.712 79.3993 179.418 81.4094 182.491 82.6772C184.021 83.1226 185.666 82.7571 186.877 81.7178C188.19 80.4843 189.012 78.5314 190.566 76.7496H190.554C192.656 74.6252 195.054 72.8436 197.693 71.45C199.771 70.8447 201.039 68.7546 200.616 66.6303C200.388 64.209 199.771 61.4223 201.256 59.8233C202.752 58.2128 205.527 59.0352 207.104 57.1963C208.132 56.0313 208.737 53.747 208.474 48.9843L208.486 48.9729C208.109 45.1695 209.811 41.4691 212.929 39.2648C214.505 38.1227 216.275 37.2774 218.16 36.7521C213.043 31.6809 207.526 27.0553 201.644 22.9207C200.582 24.04 199.086 24.6567 197.544 24.611C195.283 24.1085 193.067 23.4232 190.909 22.5666C189.629 22.0869 188.225 22.0298 186.9 22.3953C185.403 22.9207 184.238 24.4397 183.599 27.6264C183.188 30.3447 181.988 32.8803 180.15 34.9361C179.373 35.7698 178.345 36.3066 177.226 36.4894C175.889 36.6264 174.576 36.0325 173.799 34.9361C170.27 30.2877 163.163 32.0122 156.756 31.3383Z" fill="black"/>
</mask>
<g mask="url(#mask0_105_126)">
<path d="M0 -1H256L258 256L0 255V-1Z" fill="url(#paint1_linear_105_126)"/>
</g>
</g>
<g filter="url(#filter0_d_105_126)">
<path d="M188.936 150.86C197.838 156.362 201.705 167.137 198.211 176.699L185.325 211.958C181.238 223.139 168.597 228.794 157.089 224.588L155.353 223.953C145.199 220.242 139.891 209.236 143.496 199.37C144.03 197.909 144.746 196.522 145.629 195.238L157.211 178.389C159.463 175.113 158.539 170.623 155.148 168.359C154.985 168.25 154.817 168.147 154.646 168.051L143.904 162.029C137.602 158.496 134.751 151.071 137.162 144.473L138.653 140.395C141.403 132.87 149.91 129.065 157.655 131.895C158.633 132.253 159.572 132.709 160.456 133.255L188.936 150.86ZM164.291 97.173C168.127 98.5749 170.132 102.733 168.77 106.46L163.837 119.957C162.475 123.684 158.261 125.569 154.425 124.167C150.589 122.765 148.584 118.607 149.946 114.88L154.879 101.383C156.241 97.656 160.455 95.7711 164.291 97.173ZM178.936 108.263C182.293 109.49 184.047 113.128 182.855 116.389L179.156 126.511C177.964 129.773 174.277 131.422 170.921 130.195C167.564 128.969 165.81 125.33 167.001 122.069L170.701 111.947C171.893 108.686 175.58 107.036 178.936 108.263ZM192.714 119.036C196.07 120.262 197.825 123.9 196.633 127.161L193.55 135.597C192.358 138.858 188.671 140.507 185.314 139.281C181.958 138.054 180.203 134.416 181.395 131.155L184.478 122.719C185.67 119.458 189.357 117.809 192.714 119.036ZM206.491 129.808C209.847 131.035 211.602 134.673 210.41 137.934L207.944 144.682C206.752 147.944 203.065 149.593 199.708 148.366C196.352 147.14 194.597 143.502 195.789 140.24L198.256 133.492C199.448 130.231 203.135 128.581 206.491 129.808Z" fill="url(#paint2_linear_105_126)"/>
</g>
<g filter="url(#filter1_d_105_126)">
<path d="M67.9177 80.8599C59.0159 86.3625 55.1485 97.1373 58.6432 106.699L71.5292 141.958C75.6156 153.139 88.257 158.794 99.7645 154.588L101.501 153.953C111.655 150.242 116.963 139.236 113.357 129.37C112.824 127.909 112.108 126.522 111.225 125.238L99.6431 108.389C97.3913 105.113 98.3147 100.623 101.706 98.3586C101.869 98.2495 102.037 98.1468 102.208 98.0506L112.95 92.0288C119.252 88.4962 122.103 81.0713 119.692 74.4735L118.201 70.3954C115.451 62.8705 106.943 59.0649 99.1989 61.8953C98.221 62.2527 97.2821 62.7085 96.3976 63.2553L67.9177 80.8599ZM92.5632 27.173C88.7274 28.5749 86.722 32.7327 88.0842 36.4597L93.0169 49.9566C94.379 53.6836 98.5928 55.5685 102.429 54.1666C106.265 52.7647 108.27 48.6069 106.908 44.8798L101.975 31.383C100.613 27.656 96.399 25.7711 92.5632 27.173ZM77.9176 38.2629C74.5613 39.4895 72.8066 43.1276 73.9985 46.3888L77.6981 56.5114C78.8899 59.7726 82.577 61.4219 85.9334 60.1952C89.2897 58.9686 91.0444 55.3305 89.8525 52.0693L86.1529 41.9467C84.9611 38.6855 81.274 37.0362 77.9176 38.2629ZM64.1403 49.0355C60.7839 50.2622 59.0293 53.9003 60.2211 57.1614L63.3041 65.597C64.496 68.8581 68.183 70.5074 71.5394 69.2808C74.8958 68.0541 76.6504 64.416 75.4585 61.1548L72.3756 52.7193C71.1837 49.4581 67.4966 47.8088 64.1403 49.0355ZM50.3629 59.8081C47.0066 61.0348 45.2519 64.6729 46.4438 67.9341L48.9101 74.6825C50.102 77.9437 53.7891 79.5929 57.1454 78.3663C60.5018 77.1396 62.2565 73.5015 61.0646 70.2404L58.5982 63.4919C57.4063 60.2308 53.7193 58.5815 50.3629 59.8081Z" fill="url(#paint3_linear_105_126)"/>
</g>
</g>
<defs>
<filter id="filter0_d_105_126" x="134.31" y="96.7094" width="78.4733" height="133.269" filterUnits="userSpaceOnUse" color-interpolation-filters="sRGB">
<feFlood flood-opacity="0" result="BackgroundImageFix"/>
<feColorMatrix in="SourceAlpha" type="matrix" values="0 0 0 0 0 0 0 0 0 0 0 0 0 0 0 0 0 0 127 0" result="hardAlpha"/>
<feOffset dy="2"/>
<feGaussianBlur stdDeviation="1"/>
<feComposite in2="hardAlpha" operator="out"/>
<feColorMatrix type="matrix" values="0 0 0 0 0 0 0 0 0 0 0 0 0 0 0 0 0 0 0.25 0"/>
<feBlend mode="normal" in2="BackgroundImageFix" result="effect1_dropShadow_105_126"/>
<feBlend mode="normal" in="SourceGraphic" in2="effect1_dropShadow_105_126" result="shape"/>
</filter>
<filter id="filter1_d_105_126" x="44.0702" y="26.7094" width="78.4733" height="133.269" filterUnits="userSpaceOnUse" color-interpolation-filters="sRGB">
<feFlood flood-opacity="0" result="BackgroundImageFix"/>
<feColorMatrix in="SourceAlpha" type="matrix" values="0 0 0 0 0 0 0 0 0 0 0 0 0 0 0 0 0 0 127 0" result="hardAlpha"/>
<feOffset dy="2"/>
<feGaussianBlur stdDeviation="1"/>
<feComposite in2="hardAlpha" operator="out"/>
<feColorMatrix type="matrix" values="0 0 0 0 0 0 0 0 0 0 0 0 0 0 0 0 0 0 0.25 0"/>
<feBlend mode="normal" in2="BackgroundImageFix" result="effect1_dropShadow_105_126"/>
<feBlend mode="normal" in="SourceGraphic" in2="effect1_dropShadow_105_126" result="shape"/>
</filter>
<linearGradient id="paint0_linear_105_126" x1="128" y1="256" x2="128" y2="0" gradientUnits="userSpaceOnUse">
<stop stop-color="#BE185D"/>
<stop offset="1" stop-color="#312E81"/>
</linearGradient>
<linearGradient id="paint1_linear_105_126" x1="126" y1="-1" x2="126" y2="255" gradientUnits="userSpaceOnUse">
<stop stop-color="#818CF8"/>
<stop offset="1" stop-color="#F43F5E"/>
</linearGradient>
<linearGradient id="paint2_linear_105_126" x1="187.731" y1="105.74" x2="145.803" y2="220.463" gradientUnits="userSpaceOnUse">
<stop stop-color="white"/>
</linearGradient>
<linearGradient id="paint3_linear_105_126" x1="69.1225" y1="35.7399" x2="111.051" y2="150.463" gradientUnits="userSpaceOnUse">
<stop stop-color="white"/>
</linearGradient>
<clipPath id="clip0_105_126">
<rect width="256" height="256" fill="white"/>
</clipPath>
<clipPath id="clip1_105_126">
<rect width="256" height="256" rx="128" fill="white"/>
</clipPath>
</defs>
</svg>
